<?xml version="1.0" encoding="UTF-8"?>
<svg xmlns="http://www.w3.org/2000/svg" viewBox="0 0 512 512" width="512" height="512" role="img" aria-label="Full cartoon avatar: curly-haired man">
  <defs>
    <linearGradient id="bg2" x1="0" x2="1">
      <stop offset="0%" stop-color="#f7fbff"/>
      <stop offset="100%" stop-color="#e6f0ff"/>
    </linearGradient>
  </defs>
  <rect width="100%" height="100%" rx="48" fill="url(#bg2)"/>

  <!-- Body / shirt -->
  <g transform="translate(0,220)">
    <path d="M64 240c40-48 344-48 384 0v72H64z" fill="#2d6fa6"/>
  </g>

  <!-- Face -->
  <g transform="translate(0,36)">
    <ellipse cx="256" cy="216" rx="128" ry="160" fill="#f2c08b"/>

    <!-- Hair: full coverage over forehead and sides -->
    <path d="M80 112 C112 16,400 16,432 112 C464 192,464 312,384 336 C352 368,160 368,128 336 C80 304,48 240,80 112 Z" fill="#222222"/>

    <!-- Eyes -->
    <g fill="#111111">
      <ellipse cx="208" cy="240" rx="16" ry="12"/>
      <ellipse cx="304" cy="240" rx="16" ry="12"/>
    </g>

    <!-- Smile -->
    <path d="M208 296c16 12 64 12 80 0" stroke="#7a3d1f" stroke-width="6" stroke-linecap="round" fill="none"/>

    <!-- Nose -->
    <path d="M268 248c-6 8-12 12-20 12" stroke="#c6864b" stroke-width="4" stroke-linecap="round" fill="none"/>

    <!-- Cheeks -->
    <ellipse cx="172" cy="272" rx="12" ry="8" fill="#ffcbb3" opacity="0.85"/>
    <ellipse cx="340" cy="272" rx="12" ry="8" fill="#ffcbb3" opacity="0.85"/>
  </g>

  <rect x="12" y="12" width="488" height="488" rx="40" fill="none" stroke="#00000010"/>
</svg>
